HIERARCHY
ROOT mixamorig:Hips
{
	OFFSET -0.000008 104.274872 1.554316
	CHANNELS 6 Xposition Yposition Zposition Xrotation Yrotation Zrotation
	JOINT mixamorig:Spine
	{
		OFFSET -0.000005 10.181595 0.131519
		CHANNELS 6 Xposition Yposition Zposition Xrotation Yrotation Zrotation
		JOINT mixamorig:Spine1
		{
			OFFSET -0.000000 9.893959 -1.470707
			CHANNELS 6 Xposition Yposition Zposition Xrotation Yrotation Zrotation
			JOINT mixamorig:Spine2
			{
				OFFSET -0.000000 9.220757 -1.370641
				CHANNELS 6 Xposition Yposition Zposition Xrotation Yrotation Zrotation
				JOINT mixamorig:Neck
				{
					OFFSET 0.000001 16.740417 -2.049036
					CHANNELS 6 Xposition Yposition Zposition Xrotation Yrotation Zrotation
					JOINT mixamorig:Head
					{
						OFFSET 0.000000 9.617874 1.685006
						CHANNELS 6 Xposition Yposition Zposition Xrotation Yrotation Zrotation
						JOINT mixamorig:HeadTop_End
						{
							OFFSET 0.000002 22.037354 7.501101
							CHANNELS 6 Xposition Yposition Zposition Xrotation Yrotation Zrotation
							End Site
							{
								OFFSET 0.000168 2310.654297 -282.823242
							}
						}
					}
				}
				JOINT mixamorig:RightShoulder
				{
					OFFSET -4.569970 11.014908 -2.160885
					CHANNELS 6 Xposition Yposition Zposition Xrotation Yrotation Zrotation
					JOINT mixamorig:RightArm
					{
						OFFSET -10.592851 -0.524811 -2.232101
						CHANNELS 6 Xposition Yposition Zposition Xrotation Yrotation Zrotation
						JOINT mixamorig:RightForeArm
						{
							OFFSET -27.841511 0.000031 -0.000004
							CHANNELS 6 Xposition Yposition Zposition Xrotation Yrotation Zrotation
							JOINT mixamorig:RightHand
							{
								OFFSET -28.328831 -0.000015 0.000015
								CHANNELS 6 Xposition Yposition Zposition Xrotation Yrotation Zrotation
								JOINT mixamorig:RightHandThumb1
								{
									OFFSET -2.464806 -1.573990 2.681852
									CHANNELS 6 Xposition Yposition Zposition Xrotation Yrotation Zrotation
									JOINT mixamorig:RightHandThumb2
									{
										OFFSET -3.215179 -1.872803 1.924282
										CHANNELS 6 Xposition Yposition Zposition Xrotation Yrotation Zrotation
										JOINT mixamorig:RightHandThumb3
										{
											OFFSET -2.654831 -1.527969 1.512609
											CHANNELS 6 Xposition Yposition Zposition Xrotation Yrotation Zrotation
											JOINT mixamorig:RightHandThumb4
											{
												OFFSET -2.018814 -1.152008 1.108052
												CHANNELS 6 Xposition Yposition Zposition Xrotation Yrotation Zrotation
												End Site
												{
													OFFSET -188.809540 -114.533607 132.431396
												}
											}
										}
									}
								}
								JOINT mixamorig:RightHandIndex1
								{
									OFFSET -9.108284 -0.517868 2.259835
									CHANNELS 6 Xposition Yposition Zposition Xrotation Yrotation Zrotation
									JOINT mixamorig:RightHandIndex2
									{
										OFFSET -3.699989 0.000000 0.001215
										CHANNELS 6 Xposition Yposition Zposition Xrotation Yrotation Zrotation
										JOINT mixamorig:RightHandIndex3
										{
											OFFSET -2.850006 0.000031 -0.000522
											CHANNELS 6 Xposition Yposition Zposition Xrotation Yrotation Zrotation
											JOINT mixamorig:RightHandIndex4
											{
												OFFSET -2.772186 -0.000015 -0.000020
												CHANNELS 6 Xposition Yposition Zposition Xrotation Yrotation Zrotation
												End Site
												{
													OFFSET -277.218445 0.000000 -0.050231
												}
											}
										}
									}
								}
								JOINT mixamorig:RightHandMiddle1
								{
									OFFSET -9.532516 -0.000031 -0.000023
									CHANNELS 6 Xposition Yposition Zposition Xrotation Yrotation Zrotation
									JOINT mixamorig:RightHandMiddle2
									{
										OFFSET -3.700005 -0.000015 0.003713
										CHANNELS 6 Xposition Yposition Zposition Xrotation Yrotation Zrotation
										JOINT mixamorig:RightHandMiddle3
										{
											OFFSET -2.949974 0.000015 -0.002054
											CHANNELS 6 Xposition Yposition Zposition Xrotation Yrotation Zrotation
											JOINT mixamorig:RightHandMiddle4
											{
												OFFSET -2.946640 0.000000 -0.000156
												CHANNELS 6 Xposition Yposition Zposition Xrotation Yrotation Zrotation
												End Site
												{
													OFFSET -294.664337 0.000000 -0.113670
												}
											}
										}
									}
								}
								JOINT mixamorig:RightHandRing1
								{
									OFFSET -9.103600 -0.043076 -1.865134
									CHANNELS 6 Xposition Yposition Zposition Xrotation Yrotation Zrotation
									JOINT mixamorig:RightHandRing2
									{
										OFFSET -3.379288 0.000000 -0.001055
										CHANNELS 6 Xposition Yposition Zposition Xrotation Yrotation Zrotation
										JOINT mixamorig:RightHandRing3
										{
											OFFSET -2.889687 -0.000015 0.000379
											CHANNELS 6 Xposition Yposition Zposition Xrotation Yrotation Zrotation
											JOINT mixamorig:RightHandRing4
											{
												OFFSET -2.638809 -0.000015 0.000941
												CHANNELS 6 Xposition Yposition Zposition Xrotation Yrotation Zrotation
												End Site
												{
													OFFSET -263.880371 0.000000 0.516020
												}
											}
										}
									}
								}
								JOINT mixamorig:RightHandPinky1
								{
									OFFSET -8.076683 -0.486710 -3.806280
									CHANNELS 6 Xposition Yposition Zposition Xrotation Yrotation Zrotation
									JOINT mixamorig:RightHandPinky2
									{
										OFFSET -3.600014 -0.000015 -0.003747
										CHANNELS 6 Xposition Yposition Zposition Xrotation Yrotation Zrotation
										JOINT mixamorig:RightHandPinky3
										{
											OFFSET -2.099983 0.000000 -0.005739
											CHANNELS 6 Xposition Yposition Zposition Xrotation Yrotation Zrotation
											JOINT mixamorig:RightHandPinky4
											{
												OFFSET -2.115768 -0.000031 -0.003680
												CHANNELS 6 Xposition Yposition Zposition Xrotation Yrotation Zrotation
												End Site
												{
													OFFSET -211.577087 0.000000 -0.350686
												}
											}
										}
									}
								}
							}
						}
					}
				}
				JOINT mixamorig:LeftShoulder
				{
					OFFSET 4.570447 11.014725 -2.160855
					CHANNELS 6 Xposition Yposition Zposition Xrotation Yrotation Zrotation
					JOINT mixamorig:LeftArm
					{
						OFFSET 10.592371 -0.524597 -2.232119
						CHANNELS 6 Xposition Yposition Zposition Xrotation Yrotation Zrotation
						JOINT mixamorig:LeftForeArm
						{
							OFFSET 27.841532 -0.000031 0.000026
							CHANNELS 6 Xposition Yposition Zposition Xrotation Yrotation Zrotation
							JOINT mixamorig:LeftHand
							{
								OFFSET 28.328846 -0.000061 0.000022
								CHANNELS 6 Xposition Yposition Zposition Xrotation Yrotation Zrotation
								JOINT mixamorig:LeftHandThumb1
								{
									OFFSET 2.466141 -1.576172 2.681732
									CHANNELS 6 Xposition Yposition Zposition Xrotation Yrotation Zrotation
									JOINT mixamorig:LeftHandThumb2
									{
										OFFSET 3.217812 -1.872070 1.916482
										CHANNELS 6 Xposition Yposition Zposition Xrotation Yrotation Zrotation
										JOINT mixamorig:LeftHandThumb3
										{
											OFFSET 2.656029 -1.528778 1.514513
											CHANNELS 6 Xposition Yposition Zposition Xrotation Yrotation Zrotation
											JOINT mixamorig:LeftHandThumb4
											{
												OFFSET 2.020889 -1.154053 1.115139
												CHANNELS 6 Xposition Yposition Zposition Xrotation Yrotation Zrotation
												End Site
												{
													OFFSET 190.885437 -115.081749 130.048782
												}
											}
										}
									}
								}
								JOINT mixamorig:LeftHandIndex1
								{
									OFFSET 9.109314 -0.518021 2.259871
									CHANNELS 6 Xposition Yposition Zposition Xrotation Yrotation Zrotation
									JOINT mixamorig:LeftHandIndex2
									{
										OFFSET 3.699989 0.000000 -0.000322
										CHANNELS 6 Xposition Yposition Zposition Xrotation Yrotation Zrotation
										JOINT mixamorig:LeftHandIndex3
										{
											OFFSET 2.850006 0.000000 0.000352
											CHANNELS 6 Xposition Yposition Zposition Xrotation Yrotation Zrotation
											JOINT mixamorig:LeftHandIndex4
											{
												OFFSET 2.774864 -0.000031 -0.000027
												CHANNELS 6 Xposition Yposition Zposition Xrotation Yrotation Zrotation
												End Site
												{
													OFFSET 277.486267 0.000000 -0.009857
												}
											}
										}
									}
								}
								JOINT mixamorig:LeftHandMiddle1
								{
									OFFSET 9.533394 0.000061 0.000044
									CHANNELS 6 Xposition Yposition Zposition Xrotation Yrotation Zrotation
									JOINT mixamorig:LeftHandMiddle2
									{
										OFFSET 3.699989 -0.000015 -0.000231
										CHANNELS 6 Xposition Yposition Zposition Xrotation Yrotation Zrotation
										JOINT mixamorig:LeftHandMiddle3
										{
											OFFSET 2.949997 -0.000015 -0.000059
											CHANNELS 6 Xposition Yposition Zposition Xrotation Yrotation Zrotation
											JOINT mixamorig:LeftHandMiddle4
											{
												OFFSET 2.952896 0.000031 0.000063
												CHANNELS 6 Xposition Yposition Zposition Xrotation Yrotation Zrotation
												End Site
												{
													OFFSET 295.289337 0.000000 0.022810
												}
											}
										}
									}
								}
								JOINT mixamorig:LeftHandRing1
								{
									OFFSET 9.104523 -0.042999 -1.865074
									CHANNELS 6 Xposition Yposition Zposition Xrotation Yrotation Zrotation
									JOINT mixamorig:LeftHandRing2
									{
										OFFSET 3.150009 -0.000031 0.000043
										CHANNELS 6 Xposition Yposition Zposition Xrotation Yrotation Zrotation
										JOINT mixamorig:LeftHandRing3
										{
											OFFSET 2.949982 -0.000015 0.000040
											CHANNELS 6 Xposition Yposition Zposition Xrotation Yrotation Zrotation
											JOINT mixamorig:LeftHandRing4
											{
												OFFSET 2.644348 0.000000 0.000057
												CHANNELS 6 Xposition Yposition Zposition Xrotation Yrotation Zrotation
												End Site
												{
													OFFSET 264.434631 0.000000 0.012105
												}
											}
										}
									}
								}
								JOINT mixamorig:LeftHandPinky1
								{
									OFFSET 8.077789 -0.486847 -3.806259
									CHANNELS 6 Xposition Yposition Zposition Xrotation Yrotation Zrotation
									JOINT mixamorig:LeftHandPinky2
									{
										OFFSET 3.599953 0.000031 0.014727
										CHANNELS 6 Xposition Yposition Zposition Xrotation Yrotation Zrotation
										JOINT mixamorig:LeftHandPinky3
										{
											OFFSET 2.100021 0.000015 0.007705
											CHANNELS 6 Xposition Yposition Zposition Xrotation Yrotation Zrotation
											JOINT mixamorig:LeftHandPinky4
											{
												OFFSET 2.125504 0.000031 0.007517
												CHANNELS 6 Xposition Yposition Zposition Xrotation Yrotation Zrotation
												End Site
												{
													OFFSET 212.550781 0.000000 0.625752
												}
											}
										}
									}
								}
							}
						}
					}
				}
			}
		}
	}
	JOINT mixamorig:RightUpLeg
	{
		OFFSET -8.207787 -6.751648 -1.599560
		CHANNELS 6 Xposition Yposition Zposition Xrotation Yrotation Zrotation
		JOINT mixamorig:RightLeg
		{
			OFFSET -0.000002 -44.370117 0.345942
			CHANNELS 6 Xposition Yposition Zposition Xrotation Yrotation Zrotation
			JOINT mixamorig:RightFoot
			{
				OFFSET 0.000003 -44.423679 -3.043532
				CHANNELS 6 Xposition Yposition Zposition Xrotation Yrotation Zrotation
				JOINT mixamorig:RightToeBase
				{
					OFFSET -0.000002 -8.728671 10.710558
					CHANNELS 6 Xposition Yposition Zposition Xrotation Yrotation Zrotation
					JOINT mixamorig:RightToe_End
					{
						OFFSET -0.000001 -0.000679 9.278119
						CHANNELS 6 Xposition Yposition Zposition Xrotation Yrotation Zrotation
						End Site
						{
							OFFSET 0.000000 -0.067690 927.812134
						}
					}
				}
			}
		}
	}
	JOINT mixamorig:LeftUpLeg
	{
		OFFSET 8.207793 -6.751686 -1.599556
		CHANNELS 6 Xposition Yposition Zposition Xrotation Yrotation Zrotation
		JOINT mixamorig:LeftLeg
		{
			OFFSET -0.000004 -44.370014 0.346954
			CHANNELS 6 Xposition Yposition Zposition Xrotation Yrotation Zrotation
			JOINT mixamorig:LeftFoot
			{
				OFFSET -0.000001 -44.423672 -3.044401
				CHANNELS 6 Xposition Yposition Zposition Xrotation Yrotation Zrotation
				JOINT mixamorig:LeftToeBase
				{
					OFFSET -0.000002 -8.728669 10.710558
					CHANNELS 6 Xposition Yposition Zposition Xrotation Yrotation Zrotation
					JOINT mixamorig:LeftToe_End
					{
						OFFSET -0.000003 -0.000679 9.278133
						CHANNELS 6 Xposition Yposition Zposition Xrotation Yrotation Zrotation
						End Site
						{
							OFFSET 0.000000 -0.068021 927.813477
						}
					}
				}
			}
		}
	}
}
MOTION
Frames: 3
Frame Time: 0.033333
0.000006 104.270477 1.554256 0.000010 0.000003 -0.000113 -0.000005 10.181587 0.131522 0.000001 -0.000003 0.000084 -0.000000 9.893967 -1.470711 0.000001 0.000000 -0.000000 -0.000000 9.220802 -1.370642 0.000000 -0.000000 -0.000000 0.000001 16.740433 -2.049030 0.000000 -0.000000 -0.000000 0.000000 9.617859 1.685014 0.000000 0.000000 0.000000 0.000002 22.037384 7.501101 0.000000 -0.000000 0.000000 -4.569968 11.014880 -2.160881 0.000008 0.000001 -0.000038 -10.592785 -0.524846 -2.231750 76.507121 65.265080 -53.574590 -27.841488 0.000015 0.000578 54.133050 107.842028 -70.082481 -28.328829 0.000006 0.000020 -0.000322 -0.000043 0.000007 -2.464472 -1.574193 2.682215 47.062964 -124.165326 103.117873 -3.214969 -1.873052 1.924551 259.971917 -37.490147 316.424742 -2.654667 -1.528289 1.512945 249.518886 -31.557192 -48.470011 -2.018842 -1.152018 1.108062 -0.000004 -0.000006 0.000002 -9.108112 -0.517737 2.260444 192.792499 18.606625 -248.822917 -3.699731 0.000043 0.001833 181.582929 20.264014 -188.732074 -2.849879 -0.000008 0.000055 173.734768 16.860547 220.542287 -2.772160 0.000003 -0.000022 -0.000002 -0.000002 0.000002 -9.532323 0.000094 0.000578 191.970403 15.408867 -255.681957 -3.699731 0.000013 0.004298 179.725281 11.725263 -176.525310 -2.949869 -0.000040 -0.001484 176.166520 9.518343 223.884995 -2.946637 0.000002 -0.000155 -0.000000 -0.000002 -0.000004 -9.103397 -0.042898 -1.864518 189.805001 14.033535 -249.681472 -3.378941 0.000054 -0.000475 180.796391 4.755435 160.704010 -2.889728 0.000048 0.000939 357.564419 -180.918966 136.321615 -2.638805 -0.000019 0.000937 -0.000001 0.000001 0.000001 -8.076487 -0.486539 -3.805697 188.699877 10.242547 -260.527321 -3.599958 0.000125 -0.003169 187.373973 1.610113 20.793637 -2.099945 -0.000084 -0.005186 185.286503 -1.911218 314.926417 -2.115766 -0.000071 -0.003675 -0.000002 -0.000002 -0.000004 4.570446 11.014691 -2.160851 -0.000018 0.000010 -0.000021 10.592535 -0.524538 -2.232391 69.566706 -65.016168 47.752199 27.841736 -0.000073 -0.000111 237.367406 -75.719935 250.276873 28.328831 -0.000028 0.000025 0.000018 -0.000088 -0.000000 2.466104 -1.576178 2.681890 46.019933 116.453755 -97.344341 3.217839 -1.871986 1.916542 267.078483 37.557120 39.119116 2.656061 -1.528739 1.514623 -100.144398 28.019736 40.351603 2.020883 -1.154081 1.115146 0.000004 0.000003 0.000006 9.109145 -0.518012 2.259966 181.450655 -14.696532 191.144019 3.699979 -0.000048 -0.000250 171.895521 -21.411851 -220.994213 2.850074 0.000033 0.000401 -10.727268 -161.778508 -60.702275 2.774878 -0.000029 -0.000030 0.000001 0.000003 0.000001 9.533128 0.000107 0.000132 182.790520 -10.114052 210.723507 3.700029 -0.000000 -0.000176 171.204115 -15.439665 -239.157462 2.950090 -0.000000 -0.000009 -190.011068 -15.341520 -246.050707 2.952874 -0.000047 0.000063 -0.000001 -0.000003 -0.000006 9.104296 -0.042956 -1.864980 183.219988 -10.937979 212.731351 3.149923 -0.000017 0.000118 176.199018 -8.991138 -225.739419 2.949859 -0.000068 0.000111 175.791584 -7.815415 -236.523878 2.644321 0.000033 0.000055 0.000001 0.000003 -0.000002 8.077496 -0.486673 -3.806146 188.008497 -11.373584 251.133106 3.599615 0.000205 0.014814 183.849554 -6.432002 -116.174401 2.099692 0.000023 0.007776 180.307773 -3.497084 -159.302373 2.125499 0.000000 0.007513 0.000003 0.000002 -0.000001 -8.207786 -6.751667 -1.599560 -0.077001 -0.000003 0.000080 -0.000002 -44.370110 0.345938 0.153719 -0.000000 -0.000000 0.000000 -44.423679 -3.043532 -0.076700 0.000000 -0.000002 -0.000006 -8.728667 10.710559 -0.000009 -0.000000 -0.000000 -0.000001 -0.000679 9.278123 0.000000 -0.000000 -0.000000 8.207792 -6.751710 -1.599556 -0.074518 -0.000003 0.000081 -0.000002 -44.370014 0.346960 0.148822 0.000002 0.000000 -0.000001 -44.423664 -3.044403 -0.074314 0.000000 -0.000002 -0.000004 -8.728671 10.710558 0.000007 -0.000000 -0.000000 0.000000 -0.000680 9.278137 -0.000000 0.000000 -0.000001 
0.000006 104.270477 1.554256 0.000010 0.000003 -0.000113 -0.000005 10.181587 0.131522 0.000001 -0.000003 0.000084 -0.000000 9.893967 -1.470711 0.000001 0.000000 -0.000000 -0.000000 9.220802 -1.370642 0.000000 -0.000000 -0.000000 0.000001 16.740433 -2.049030 0.000000 -0.000000 -0.000000 0.000000 9.617859 1.685014 0.000000 0.000000 0.000000 0.000002 22.037384 7.501101 0.000000 -0.000000 0.000000 -4.569968 11.014880 -2.160881 0.000008 0.000001 -0.000038 -10.592779 -0.524842 -2.231754 76.657358 65.084435 -53.538725 -27.841496 0.000022 0.000577 54.572621 107.236709 -69.994187 -28.328831 0.000006 0.000023 -0.000320 -0.000043 0.000007 -2.464496 -1.574208 2.682188 61.896233 -125.975121 116.878839 -3.215021 -1.873057 1.924512 273.998284 -29.714222 327.434734 -2.654740 -1.528285 1.512902 265.372466 -20.613755 -34.483340 -2.018807 -1.152004 1.108062 -0.000002 -0.000005 0.000000 -9.108142 -0.517744 2.260447 197.391238 20.010943 -261.866229 -3.699845 -0.000029 0.001817 171.569584 23.085988 -140.193704 -2.850018 0.000037 0.000032 162.857760 18.066310 266.950594 -2.772163 0.000000 -0.000020 -0.000000 -0.000002 -0.000000 -9.532347 0.000083 0.000584 195.010275 18.299687 -258.656313 -3.699939 -0.000050 0.004286 170.677739 14.279131 -113.140786 -2.950031 0.000072 -0.001507 164.496924 9.056039 299.671818 -2.946629 0.000000 -0.000156 -0.000001 -0.000002 0.000002 -9.103407 -0.042895 -1.864508 193.599636 17.387773 -255.856701 -3.379252 -0.000050 -0.000496 172.518407 6.676650 276.282026 -2.889693 0.000252 0.000903 344.799561 -178.035124 194.384124 -2.638825 -0.000002 0.000942 0.000000 -0.000000 0.000000 -8.076529 -0.486544 -3.805684 194.665295 13.369796 -275.382600 -3.599654 0.000022 -0.003185 180.827851 2.775999 156.402152 -2.099712 0.000308 -0.005210 174.561399 -5.008363 445.460648 -2.115769 -0.000011 -0.003675 -0.000002 0.000004 -0.000003 4.570446 11.014691 -2.160851 -0.000018 0.000010 -0.000021 10.592525 -0.524538 -2.232400 69.520418 -65.117480 47.798340 27.841749 -0.000089 -0.000113 237.698943 -75.707757 250.659036 28.328840 -0.000028 0.000023 0.000021 -0.000088 -0.000000 2.466121 -1.576195 2.681867 55.479608 118.613051 -107.248013 3.217836 -1.871977 1.916567 270.195098 34.993036 36.360915 2.656071 -1.528742 1.514619 -99.304872 27.161676 39.508471 2.020894 -1.154079 1.115146 -0.000001 0.000004 0.000004 9.109055 -0.517889 2.259973 188.163720 -14.667275 237.988352 3.699888 -0.000033 -0.000241 177.859328 -21.011904 -191.423483 2.850029 0.000009 0.000413 -8.479786 -162.542834 -51.557225 2.774878 -0.000011 -0.000029 -0.000000 0.000005 -0.000002 9.533134 0.000280 0.000155 189.818907 -10.807101 264.479924 3.700015 -0.000014 -0.000174 172.788746 -15.191599 -230.604672 2.950122 0.000059 -0.000025 -193.496486 -14.256292 -266.812488 2.952852 -0.000025 0.000060 -0.000001 0.000003 -0.000001 9.104263 -0.042761 -1.864962 190.731721 -10.809650 269.582867 3.149913 -0.000023 0.000115 176.969081 -7.579540 -223.514935 2.950063 0.000063 0.000088 172.817638 -5.877779 -281.407127 2.644311 0.000005 0.000059 0.000002 0.000001 -0.000000 8.077544 -0.486559 -3.806124 196.341970 -11.105541 291.140584 3.599700 0.000403 0.014826 189.349701 -5.923450 -65.915027 2.099844 0.000447 0.007796 186.205409 -2.128368 -41.899478 2.125503 -0.000029 0.007517 0.000002 0.000001 0.000000 -8.207786 -6.751667 -1.599560 -0.077001 -0.000003 0.000080 -0.000002 -44.370110 0.345938 0.153719 -0.000000 -0.000000 0.000000 -44.423679 -3.043532 -0.076700 0.000000 -0.000002 -0.000006 -8.728667 10.710559 -0.000009 -0.000000 -0.000000 -0.000001 -0.000679 9.278123 0.000000 -0.000000 -0.000000 8.207792 -6.751710 -1.599556 -0.074518 -0.000003 0.000081 -0.000002 -44.370014 0.346960 0.148822 0.000002 0.000000 -0.000001 -44.423664 -3.044403 -0.074314 0.000000 -0.000002 -0.000004 -8.728671 10.710558 0.000007 -0.000000 -0.000000 0.000000 -0.000680 9.278137 -0.000000 0.000000 -0.000001 
0.000006 104.270477 1.554256 0.000010 0.000003 -0.000113 -0.000005 10.181587 0.131522 0.000001 -0.000003 0.000084 -0.000000 9.893967 -1.470711 0.000001 0.000000 -0.000000 -0.000000 9.220802 -1.370642 0.000000 -0.000000 -0.000000 0.000001 16.740433 -2.049030 0.000000 -0.000000 -0.000000 0.000000 9.617859 1.685014 0.000000 0.000000 0.000000 0.000002 22.037384 7.501101 0.000000 -0.000000 0.000000 -4.569968 11.014880 -2.160881 0.000008 0.000001 -0.000038 -10.592784 -0.524840 -2.231750 76.814958 65.049000 -53.637585 -27.841499 -0.000014 0.000575 57.171576 106.792624 -72.527866 -28.328829 0.000006 0.000014 -0.000322 -0.000045 0.000007 -2.464520 -1.574193 2.682166 71.645160 -127.932927 125.558302 -3.215034 -1.873050 1.924478 280.578434 -27.581187 331.450639 -2.654721 -1.528282 1.512879 270.692090 -20.810109 -31.962266 -2.018835 -1.151980 1.108065 -0.000003 0.000003 0.000005 -9.108193 -0.517728 2.260456 205.451134 18.824865 -287.416355 -3.699800 -0.000008 0.001822 176.063016 23.187282 -160.864615 -2.849973 0.000008 0.000050 166.930971 17.984706 251.802737 -2.772170 -0.000016 -0.000004 -0.000000 0.000002 -0.000000 -9.532393 0.000101 0.000564 200.825170 16.862520 -282.165278 -3.699826 -0.000055 0.004298 174.085184 14.265605 -134.364451 -2.950006 0.000057 -0.001505 168.123699 8.416385 289.514643 -2.946605 0.000012 -0.000156 -0.000000 0.000001 -0.000005 -9.103466 -0.042900 -1.864524 198.503384 16.295020 -277.384064 -3.379141 -0.000085 -0.000482 175.627277 6.945760 244.058068 -2.889674 0.000269 0.000913 349.014744 -178.382794 196.343951 -2.638812 -0.000019 0.000943 0.000000 0.000001 0.000001 -8.076597 -0.486559 -3.805688 198.721349 12.478222 -293.057353 -3.599829 0.000207 -0.003173 184.304418 3.282348 73.292506 -2.099539 -0.000040 -0.005201 180.239786 -4.493171 540.987264 -2.115767 -0.000043 -0.003683 -0.000000 0.000003 -0.000004 4.570446 11.014691 -2.160851 -0.000018 0.000010 -0.000021 10.592533 -0.524541 -2.232393 69.774706 -64.880322 47.805413 27.841734 -0.000085 -0.000093 240.651060 -75.118284 254.520224 28.328827 -0.000013 0.000032 0.000021 -0.000089 -0.000001 2.466155 -1.576155 2.681884 70.564303 124.998527 -123.215793 3.217832 -1.871988 1.916538 275.579391 33.760109 32.879858 2.656081 -1.528756 1.514622 -94.073459 27.492860 36.737156 2.020895 -1.154081 1.115150 0.000001 0.000003 0.000004 9.109076 -0.517762 2.260013 196.935609 -14.675292 278.287424 3.699759 0.000046 -0.000210 187.187249 -21.612161 -143.528448 2.849829 0.000012 0.000450 1.869612 -161.427300 11.391403 2.774889 -0.000029 -0.000027 0.000001 0.000001 -0.000001 9.533217 0.000394 0.000179 198.457225 -10.109827 302.885886 3.699713 0.000094 -0.000124 186.316332 -15.167268 -134.987952 2.949794 0.000006 0.000035 -177.309211 -14.983791 -159.733918 2.952881 -0.000014 0.000061 0.000002 0.000000 -0.000000 9.104317 -0.042711 -1.864935 198.516470 -11.405175 297.013836 3.149671 0.000358 0.000157 189.241347 -8.631097 -86.073648 2.949607 0.000346 0.000141 186.067344 -6.606194 -454.877731 2.644331 0.000031 0.000057 -0.000001 0.000001 0.000001 8.077582 -0.486552 -3.806114 201.393086 -12.564137 298.832306 3.599730 0.000415 0.014856 194.390531 -7.606749 -56.712276 2.099841 0.000429 0.007813 190.319492 -3.586440 -40.728452 2.125504 -0.000019 0.007513 -0.000001 0.000000 -0.000000 -8.207786 -6.751667 -1.599560 -0.077001 -0.000003 0.000080 -0.000002 -44.370110 0.345938 0.153719 -0.000000 -0.000000 0.000000 -44.423679 -3.043532 -0.076700 0.000000 -0.000002 -0.000006 -8.728667 10.710559 -0.000009 -0.000000 -0.000000 -0.000001 -0.000679 9.278123 0.000000 -0.000000 -0.000000 8.207792 -6.751710 -1.599556 -0.074518 -0.000003 0.000081 -0.000002 -44.370014 0.346960 0.148822 0.000002 0.000000 -0.000001 -44.423664 -3.044403 -0.074314 0.000000 -0.000002 -0.000004 -8.728671 10.710558 0.000007 -0.000000 -0.000000 0.000000 -0.000680 9.278137 -0.000000 0.000000 -0.000001 
